<?xml version="1.0" standalone="no"?>
<!DOCTYPE svg PUBLIC "-//W3C//DTD SVG 20010904//EN"
 "http://www.w3.org/TR/2001/REC-SVG-20010904/DTD/svg10.dtd">
<svg version="1.0" xmlns="http://www.w3.org/2000/svg"
 width="280.000000pt" height="350.000000pt" viewBox="0 0 280.000000 350.000000"
 preserveAspectRatio="xMidYMid meet">
<metadata>
Created by potrace 1.16, written by Peter Selinger 2001-2019
</metadata>
<g transform="translate(0.000000,350.000000) scale(0.100000,-0.100000)"
fill="#ffffff" stroke="none">
<path d="M643 2438 c-6 -7 -13 -67 -16 -133 -3 -66 -13 -158 -23 -205 -23
-122 -16 -236 21 -320 31 -70 34 -107 21 -245 -7 -72 -5 -89 19 -165 69 -216
171 -338 330 -396 28 -9 51 -18 52 -19 1 0 -7 -30 -18 -65 -24 -77 -20 -144
11 -195 20 -33 20 -35 4 -98 -17 -62 -17 -67 1 -113 21 -56 82 -125 129 -148
120 -57 236 35 436 348 l113 177 30 -36 c36 -44 63 -43 92 2 11 18 23 31 27
30 4 -1 59 -83 123 -182 163 -252 268 -355 360 -355 75 0 166 76 201 167 16
41 16 47 -1 109 -17 65 -17 66 3 102 31 56 36 100 18 170 -9 34 -19 67 -22 75
-3 9 9 18 38 26 80 24 208 114 208 147 0 21 -8 18 -57 -26 -48 -42 -154 -100
-183 -100 -37 0 -44 -26 -24 -88 26 -78 24 -150 -4 -189 -26 -37 -27 -48 -6
-120 18 -63 15 -81 -25 -145 -58 -92 -146 -121 -219 -74 -85 55 -144 133 -365
478 -42 66 -57 67 -88 6 -24 -46 -37 -45 -62 5 -11 22 -26 37 -37 37 -12 0
-55 -58 -140 -190 -170 -266 -262 -360 -351 -360 -53 0 -116 50 -154 122 l-29
56 18 69 17 69 -25 49 c-31 58 -32 92 -5 180 24 78 21 84 -47 103 -58 17 -155
82 -196 133 -47 58 -102 167 -129 258 -22 74 -22 93 -3 252 6 49 3 64 -27 130
-41 94 -50 202 -25 329 10 47 20 138 23 203 7 137 -11 127 168 97 266 -44 428
-107 538 -209 89 -84 222 -273 331 -473 37 -68 54 -80 75 -55 13 16 47 15 63
-1 24 -24 37 -10 89 86 64 117 190 307 254 381 91 106 191 168 345 214 90 27
226 57 260 57 11 0 20 7 20 15 0 19 -22 19 -118 -1 -185 -37 -339 -97 -425
-164 -97 -77 -222 -241 -345 -455 -35 -60 -60 -99 -57 -85 11 39 85 183 106
206 41 45 7 85 -37 43 -25 -23 -104 -170 -118 -219 -6 -22 -9 -19 -29 35 -27
72 -79 165 -106 189 -23 21 -51 15 -51 -9 0 -9 11 -31 24 -48 31 -40 101 -186
93 -193 -3 -3 -18 18 -33 48 -103 203 -293 447 -405 519 -96 61 -290 121 -495
153 -122 19 -149 20 -161 4z"/>
<path d="M710 2336 c-17 -22 -26 -197 -11 -225 10 -17 10 -26 0 -37 -21 -26
-6 -169 28 -251 16 -40 37 -81 46 -91 11 -12 13 -22 7 -28 -6 -6 -13 -59 -16
-120 -5 -96 -3 -117 18 -179 15 -45 30 -73 44 -80 17 -8 19 -14 10 -28 -15
-24 50 -150 113 -217 l47 -50 67 0 c49 0 69 4 73 14 3 8 13 12 25 9 31 -8 375
201 472 287 51 46 58 64 27 80 -25 13 -26 28 -3 26 12 0 19 7 21 22 2 12 7 20
12 17 19 -12 19 17 -1 82 -64 205 -252 471 -443 622 -66 53 -89 64 -92 44 -1
-7 -2 -16 -3 -20 0 -4 -12 9 -26 29 -22 32 -37 41 -107 63 -46 14 -97 25 -115
23 -18 -1 -38 3 -45 10 -18 18 -132 16 -148 -2z m126 -33 c-15 -53 -15 -95 2
-164 l18 -76 -68 31 -68 30 0 60 c0 34 3 78 6 99 l7 37 54 0 c47 0 54 -2 49
-17z m196 -33 c46 -17 58 -28 93 -82 22 -34 66 -93 99 -132 33 -39 79 -101
103 -138 45 -70 87 -158 75 -158 -13 1 -305 218 -403 300 -102 85 -109 97
-109 185 0 23 3 45 8 49 10 11 72 0 134 -24z m-175 -57 c-3 -10 -5 -4 -5 12 0
17 2 24 5 18 2 -7 2 -21 0 -30z m10 -55 c-3 -8 -6 -5 -6 6 -1 11 2 17 5 13 3
-3 4 -12 1 -19z m509 -131 c84 -91 180 -235 238 -357 71 -150 69 -157 -23 -63
-72 73 -88 97 -145 215 -49 102 -84 158 -150 240 -47 58 -86 110 -86 113 0 13
99 -76 166 -148z m-469 4 c3 -42 -1 -80 -11 -106 l-14 -40 5 56 c4 38 2 59 -6
64 -9 5 -9 10 0 21 8 10 9 25 0 58 -15 60 -14 65 5 37 10 -14 19 -50 21 -90z
m-47 -69 c0 -15 -9 -60 -20 -101 -11 -41 -20 -88 -20 -105 0 -30 0 -30 -19
-11 -38 39 -74 145 -79 233 l-5 84 72 -36 c62 -32 71 -40 71 -64z m338 -128
c78 -58 173 -125 210 -149 37 -24 103 -79 146 -124 l79 -80 -84 25 c-46 14
-156 42 -244 64 -192 47 -371 103 -403 126 -21 15 -23 21 -16 72 4 32 18 88
30 126 13 38 24 85 24 104 l0 34 58 -47 c31 -25 121 -93 200 -151z m-341 -66
c-3 -7 -5 -2 -5 12 0 14 2 19 5 13 2 -7 2 -19 0 -25z m8 -88 l8 -25 -21 25
c-11 14 -18 29 -15 33 7 12 19 -3 28 -33z m626 -7 c13 -16 12 -17 -3 -4 -17
13 -22 21 -14 21 2 0 10 -8 17 -17z m-661 -50 c0 -53 16 -87 65 -133 45 -42
90 -106 98 -139 l6 -23 -72 7 c-39 3 -78 10 -86 15 -36 20 -60 170 -45 283 9
61 34 54 34 -10z m182 -31 c53 -17 186 -54 295 -82 265 -67 294 -76 268 -85
-65 -24 -118 -51 -188 -96 -92 -59 -169 -96 -237 -114 -62 -16 -66 -12 -85 87
-20 108 -29 124 -105 205 -50 52 -70 81 -70 99 0 17 4 24 13 21 6 -2 56 -18
109 -35z m588 -242 c-57 -49 -384 -253 -418 -262 -7 -2 -21 11 -33 29 l-20 32
43 11 c71 20 159 60 230 106 146 94 274 148 198 84z m-683 -46 c-3 -3 -12 -4
-19 -1 -8 3 -5 6 6 6 11 1 17 -2 13 -5z m123 -22 c0 -15 -2 -15 -10 -2 -13 20
-13 33 0 25 6 -3 10 -14 10 -23z m-84 -12 l50 0 17 -54 c10 -30 33 -77 52
-105 l35 -51 -55 0 c-54 0 -55 1 -96 52 -22 29 -54 79 -71 111 l-30 60 24 -6
c12 -4 46 -7 74 -7z m140 -108 c-3 -2 -1 -13 5 -23 5 -11 7 -19 5 -19 -3 0
-12 13 -21 30 -14 27 -14 29 0 23 9 -3 14 -8 11 -11z"/>
<path d="M2743 2339 c-6 -6 -33 -12 -59 -13 -80 -4 -165 -35 -199 -72 -26 -28
-32 -31 -40 -18 -9 14 -20 9 -75 -32 -188 -139 -388 -413 -456 -624 -23 -72
-25 -85 -12 -94 8 -6 17 -19 21 -30 5 -12 13 -16 24 -11 13 5 12 1 -5 -18 -12
-13 -22 -28 -22 -33 0 -29 139 -135 300 -229 211 -124 201 -119 220 -107 15 9
19 7 23 -7 9 -36 127 -32 169 6 27 24 68 85 108 161 26 49 31 68 23 80 -8 13
-5 19 11 27 12 6 22 21 24 33 4 27 -8 28 -30 3 -11 -13 -36 -21 -88 -26 -39
-4 -73 -5 -76 -2 -13 12 31 84 85 140 66 68 81 98 81 158 0 28 4 39 15 39 16
0 22 55 8 62 -7 3 -20 54 -53 211 -7 36 -6 40 26 60 25 16 34 29 34 50 0 29
-10 33 -42 16 -17 -9 -19 -8 -14 8 21 72 28 123 23 179 -4 58 -3 64 14 64 11
0 19 7 19 15 0 18 -41 20 -57 4z m-39 -55 c9 -24 7 -88 -4 -120 -6 -17 -41
-55 -83 -90 -141 -117 -416 -318 -424 -310 -11 10 85 172 148 250 36 45 90
115 119 156 60 85 65 89 140 112 71 21 96 22 104 2z m-330 -131 c-16 -21 -59
-75 -95 -121 -61 -75 -82 -112 -163 -282 -17 -36 -55 -84 -106 -135 l-80 -79
11 39 c25 90 159 312 263 435 44 53 180 178 195 180 2 0 -9 -17 -25 -37z m345
-58 c-8 -33 -9 -53 -2 -64 8 -12 7 -22 -2 -34 -12 -16 -8 -61 9 -122 4 -11 -2
-4 -11 15 -23 46 -28 203 -7 221 8 6 14 18 14 27 0 8 2 13 5 10 3 -3 1 -27 -6
-53z m-30 -227 c12 -32 21 -82 21 -113 l0 -55 -44 -20 c-50 -22 -264 -85 -426
-124 -58 -14 -143 -36 -190 -50 l-85 -25 96 92 c55 53 162 138 250 199 85 59
197 141 249 183 l95 76 7 -53 c3 -29 16 -79 27 -110z m55 -196 c-6 -13 -15
-19 -18 -13 -4 5 -2 12 4 16 5 3 11 32 11 63 l2 57 7 -50 c4 -32 2 -58 -6 -73z
m-689 -62 c-49 -49 -92 -90 -94 -90 -9 0 164 177 174 179 5 0 -31 -39 -80 -89z
m655 2 c0 -22 -16 -44 -78 -109 -64 -65 -79 -94 -97 -187 -21 -114 -24 -117
-87 -100 -67 17 -164 64 -240 116 -53 35 -128 74 -182 92 -10 4 -17 8 -15 11
2 2 126 35 274 74 149 38 300 81 335 94 80 31 90 31 90 9z m-30 -105 c0 -2
-12 -14 -27 -28 l-28 -24 24 28 c23 25 31 32 31 24z m-605 -172 c33 -17 98
-55 145 -84 47 -29 121 -63 166 -77 l82 -26 -20 -34 -20 -34 -42 23 c-239 138
-416 254 -416 273 0 9 43 -7 105 -41z m505 -34 c0 -6 -4 -13 -10 -16 -5 -3
-10 1 -10 9 0 9 5 16 10 16 6 0 10 -4 10 -9z m119 -93 c-22 -40 -51 -87 -65
-105 -27 -35 -79 -55 -119 -45 l-25 7 35 49 c19 28 43 73 52 102 l16 53 56 4
c31 2 64 4 73 5 13 2 8 -13 -23 -70z m-180 -50 c-9 -16 -14 -19 -17 -9 -2 7 2
17 9 22 20 13 21 11 8 -13z"/>
<path d="M1639 1254 c-64 -49 -136 -92 -264 -160 -79 -42 -130 -74 -133 -86
-3 -12 -8 -15 -16 -9 -21 16 -53 -7 -77 -55 -26 -54 -35 -164 -19 -225 11 -41
54 -99 74 -99 20 0 69 57 63 73 -4 11 0 13 13 10 26 -7 91 56 218 209 58 71
107 128 110 128 5 0 -1 -8 -92 -120 -38 -47 -105 -122 -149 -167 -59 -60 -78
-86 -73 -99 5 -14 4 -15 -8 -5 -12 11 -23 6 -61 -25 -40 -34 -45 -43 -45 -79
0 -59 22 -85 71 -85 22 0 52 6 67 14 35 18 66 52 58 64 -3 6 2 8 13 5 23 -6
89 70 186 216 81 121 131 236 156 356 26 123 25 131 -13 149 -40 20 -38 21
-79 -10z m11 -69 c-37 -83 -54 -108 -183 -263 -125 -152 -176 -200 -188 -180
-5 7 -9 69 -9 138 l0 125 123 64 c126 66 246 141 267 166 22 26 20 16 -10 -50z
m45 -102 c-18 -99 -159 -349 -269 -478 -38 -45 -48 -42 -87 22 l-22 35 76 76
c94 96 228 259 270 329 18 29 34 53 36 53 2 0 0 -17 -4 -37z m-485 -171 c0
-54 -2 -60 -26 -71 -15 -6 -29 -10 -31 -7 -13 13 33 136 52 136 3 0 5 -26 5
-58z m11 -245 c-18 -18 -19 -18 -38 10 -11 15 -24 42 -27 59 -6 29 -4 33 21
41 27 10 29 8 45 -41 16 -49 16 -52 -1 -69z m59 -57 c0 -5 14 -26 32 -46 l32
-36 -25 -19 c-30 -23 -94 -25 -103 -3 -13 34 -5 66 22 89 29 26 42 31 42 15z"/>
<path d="M1893 1268 c-4 -7 -15 -13 -23 -13 -26 0 -15 -121 20 -228 38 -114
89 -209 179 -335 77 -108 124 -158 140 -148 7 4 11 -1 11 -13 0 -25 58 -61
111 -68 53 -7 89 24 89 76 0 44 -5 51 -53 90 -23 18 -45 27 -54 24 -11 -4 -14
-3 -9 6 5 7 -15 34 -52 70 -52 52 -222 250 -262 306 -28 39 14 -7 122 -135
138 -162 181 -204 206 -198 14 4 18 1 15 -11 -2 -9 9 -29 27 -46 24 -23 34
-27 47 -19 34 21 54 62 64 129 14 98 -4 179 -48 224 -26 26 -36 31 -47 22 -11
-9 -15 -7 -19 9 -3 11 -20 27 -39 34 -56 24 -269 145 -336 192 -68 47 -77 51
-89 32z m193 -133 c55 -33 133 -76 173 -95 l72 -35 -3 -132 c-2 -72 -6 -135
-11 -139 -11 -11 -54 33 -188 191 -109 129 -160 204 -189 279 l-11 29 28 -19
c16 -10 73 -46 129 -79z m-29 -230 c59 -72 133 -155 165 -185 57 -56 57 -56
42 -85 -8 -17 -24 -38 -36 -48 -20 -17 -22 -17 -41 0 -36 33 -160 215 -208
307 -44 85 -89 208 -89 244 0 8 13 -12 30 -44 16 -33 78 -118 137 -189z m372
12 c5 -18 12 -47 16 -64 l7 -33 -31 17 c-32 19 -47 62 -35 108 8 32 28 19 43
-28z m9 -173 c1 -16 -7 -44 -19 -63 -20 -33 -21 -34 -40 -15 -19 20 -19 17 7
111 7 25 49 -2 52 -33z m-48 -204 c0 -32 -17 -50 -47 -50 -26 0 -83 26 -83 38
1 4 14 23 30 42 17 19 30 41 30 49 0 10 13 3 35 -19 22 -22 35 -43 35 -60z"/>
</g>
</svg>
