<?xml version="1.0" standalone="no"?>
<!DOCTYPE svg PUBLIC "-//W3C//DTD SVG 20010904//EN"
 "http://www.w3.org/TR/2001/REC-SVG-20010904/DTD/svg10.dtd">
<svg version="1.0" xmlns="http://www.w3.org/2000/svg"
 width="230.000000pt" height="370.000000pt" viewBox="0 0 230.000000 370.000000"
 preserveAspectRatio="xMidYMid meet">
<metadata>
Created by potrace 1.16, written by Peter Selinger 2001-2019
</metadata>
<g transform="translate(0.000000,370.000000) scale(0.100000,-0.100000)"
fill="#ffffff" stroke="none">
<path d="M1512 2704 c-25 -25 -124 -97 -218 -160 -196 -130 -247 -180 -304
-298 -43 -90 -55 -104 -155 -168 -85 -55 -108 -79 -174 -188 -115 -190 -143
-370 -84 -543 l30 -89 -26 -9 c-106 -40 -174 -100 -198 -175 -15 -48 -20 -54
-61 -70 -74 -28 -116 -74 -142 -154 -26 -81 -23 -148 8 -209 64 -123 261 -132
809 -36 l33 6 -29 -48 c-40 -66 -45 -96 -23 -123 32 -40 64 -21 227 140 138
136 157 152 225 180 98 41 171 97 233 182 32 44 73 85 109 110 69 46 87 76 71
118 -9 24 -6 38 23 96 36 73 84 208 84 235 0 9 -7 22 -15 29 -20 16 -45 -3
-45 -35 0 -47 -99 -275 -120 -275 -5 0 -1 20 10 45 34 79 89 257 120 388 40
171 52 280 40 374 -19 151 -111 363 -249 574 -71 109 -103 149 -121 149 -6 0
-32 -21 -58 -46z m138 -95 c90 -136 190 -328 225 -431 35 -107 46 -207 35
-312 -14 -123 -71 -349 -125 -501 -59 -164 -60 -170 -18 -170 26 0 35 -5 44
-27 14 -35 5 -49 -61 -95 -31 -22 -79 -71 -112 -115 -63 -84 -141 -143 -236
-178 -49 -18 -78 -42 -202 -164 -80 -79 -155 -149 -168 -155 -53 -28 -50 24 5
103 31 43 33 50 20 63 -13 13 -43 10 -252 -22 -207 -32 -255 -37 -364 -33
-103 3 -133 8 -166 25 -74 39 -102 131 -71 235 21 74 47 104 124 141 61 30 65
35 82 85 9 29 29 65 43 80 26 27 103 71 161 92 32 12 32 13 -10 130 -57 156
-30 324 82 511 72 119 75 123 159 177 101 65 131 96 174 187 22 44 56 99 76
122 21 24 114 94 213 160 97 64 195 136 217 159 22 24 43 43 46 44 3 0 38 -50
79 -111z"/>
<path d="M1494 2584 c-21 -15 -67 -52 -102 -82 -53 -46 -62 -60 -57 -79 5 -21
4 -22 -14 -12 -16 11 -25 8 -58 -19 -22 -17 -56 -49 -76 -72 -48 -53 -130
-216 -124 -247 3 -18 1 -21 -9 -12 -10 8 -32 -4 -95 -53 -45 -35 -90 -70 -99
-78 -24 -21 -110 -161 -110 -180 0 -8 16 -39 35 -68 20 -28 33 -52 30 -52 -2
0 -17 18 -32 40 -40 61 -59 52 -94 -45 -40 -109 -61 -203 -53 -240 8 -37 44
-86 84 -115 25 -18 34 -20 46 -10 12 11 13 10 9 -2 -3 -8 0 -20 8 -26 16 -14
350 -123 467 -153 47 -11 117 -22 155 -23 60 -1 70 1 70 16 0 28 23 43 67 43
40 0 43 2 80 63 76 125 162 394 188 590 15 105 8 368 -9 385 -7 7 -15 7 -25
-2 -12 -10 -13 -6 -5 30 11 49 3 81 -52 192 -28 55 -45 77 -58 77 -14 0 -18 5
-14 20 8 30 -78 140 -110 140 -2 0 -22 -12 -43 -26z m92 -55 l33 -45 -52 -35
c-33 -22 -71 -61 -104 -108 -29 -40 -55 -67 -57 -60 -2 8 -13 46 -25 84 l-21
70 32 29 c71 62 143 116 152 113 4 -1 23 -23 42 -48z m-33 -141 c-45 -47 -73
-96 -73 -128 0 -11 -4 -19 -9 -17 -4 1 -26 -17 -47 -40 -28 -31 -67 -56 -136
-88 -109 -50 -132 -52 -35 -4 92 46 127 75 127 107 0 20 3 23 12 14 7 -7 15
-12 19 -12 4 0 26 30 50 67 42 65 111 143 126 143 4 0 -11 -19 -34 -42z m114
20 c5 -7 26 -51 48 -97 l38 -83 -26 -107 c-15 -58 -34 -151 -42 -206 -21 -134
-41 -205 -83 -295 l-35 -75 -8 60 c-14 120 -38 403 -45 536 -7 133 -6 136 19
176 27 42 93 103 113 103 6 0 16 -6 21 -12z m-327 -131 c7 -30 10 -62 7 -69
-2 -8 -47 -36 -98 -64 -51 -27 -105 -59 -120 -71 -14 -12 -29 -20 -33 -16 -13
14 -4 43 44 133 36 69 65 110 107 148 l57 52 12 -29 c7 -16 18 -54 24 -84z
m19 68 c0 -5 -4 -3 -9 5 -5 8 -9 22 -9 30 0 16 17 -16 18 -35z m8 -37 c-3 -8
-6 -5 -6 6 -1 11 2 17 5 13 3 -3 4 -12 1 -19z m103 -363 c6 -77 20 -218 30
-313 21 -178 25 -304 14 -410 l-7 -61 -173 343 c-95 188 -182 371 -194 406
l-22 65 34 28 c41 35 94 64 178 100 36 15 79 40 95 55 l30 27 2 -50 c1 -27 7
-113 13 -190z m-335 81 c-39 -37 -46 -48 -40 -68 6 -18 5 -21 -5 -11 -7 7 -13
27 -14 46 -1 27 2 33 16 29 10 -2 31 8 49 22 49 42 46 30 -6 -18z m640 -295
c-28 -179 -101 -406 -167 -516 l-23 -40 -3 88 c-4 118 9 181 63 297 54 119 79
207 105 369 11 68 24 129 28 135 15 23 13 -230 -3 -333z m-725 273 c0 -9 -14
-27 -30 -41 -48 -40 -63 -79 -70 -185 -5 -68 -14 -109 -30 -142 -12 -25 -25
-46 -30 -46 -4 0 -31 36 -60 80 l-52 80 41 68 c46 76 69 101 156 166 59 44 75
48 75 20z m0 -57 c0 -2 -10 -12 -22 -23 l-23 -19 19 23 c18 21 26 27 26 19z
m44 -84 c10 -32 94 -207 186 -390 167 -331 168 -332 129 -307 -50 31 -124 59
-224 85 -90 23 -220 81 -290 129 l-46 31 22 37 c12 20 40 59 62 85 50 62 77
132 77 205 1 78 14 139 35 162 10 11 21 20 25 20 3 0 14 -26 24 -57z m-107
-40 c-3 -10 -5 -4 -5 12 0 17 2 24 5 18 2 -7 2 -21 0 -30z m-22 -174 c-8 -19
-13 -25 -9 -14 3 11 8 34 12 50 3 17 8 23 10 14 1 -9 -4 -32 -13 -50z m-167
-48 l49 -64 -23 -35 c-13 -19 -33 -66 -45 -106 -36 -118 -30 -111 -60 -87 -15
11 -34 37 -44 57 -15 32 -16 45 -6 93 16 73 64 212 72 209 4 -2 30 -32 57 -67z
m146 -3 c-5 -7 -26 -36 -49 -64 -22 -28 -46 -59 -53 -70 -7 -10 -2 1 11 26 14
25 40 62 59 82 35 39 44 46 32 26z m630 -130 c-3 -4 -9 -27 -13 -50 l-9 -43
-1 51 c-1 38 3 51 14 51 8 0 12 -4 9 -9z m-760 -99 c-8 -8 -14 -24 -14 -34 0
-10 -3 -15 -6 -12 -4 4 -1 28 6 53 11 37 15 43 21 28 4 -11 1 -25 -7 -35z
m192 -122 c33 -14 114 -42 180 -61 105 -31 234 -88 234 -103 0 -22 -351 71
-576 152 l-41 15 15 48 15 48 56 -37 c31 -20 83 -48 117 -62z m-219 41 c-3 -8
-6 -5 -6 6 -1 11 2 17 5 13 3 -3 4 -12 1 -19z m760 -100 c-2 -13 -4 -5 -4 17
-1 22 1 32 4 23 2 -10 2 -28 0 -40z"/>
<path d="M635 1151 c-61 -28 -108 -70 -95 -86 9 -10 7 -12 -8 -8 -37 9 -102
-92 -102 -159 0 -10 9 -22 19 -28 26 -13 88 -13 96 1 5 6 12 4 20 -7 11 -16
35 -18 191 -22 208 -5 396 10 486 38 75 23 82 24 46 5 -57 -31 -163 -47 -353
-54 -104 -3 -233 -3 -285 1 -55 4 -100 2 -106 -3 -7 -6 -15 -4 -23 5 -6 7 -39
17 -72 20 -72 8 -103 -6 -125 -60 -12 -29 -12 -40 -2 -62 26 -53 129 -99 169
-74 13 9 19 8 23 -3 12 -33 330 -7 500 40 126 36 223 79 302 133 68 46 69 48
69 91 l0 44 -70 14 c-76 15 -368 110 -442 144 -25 11 -56 19 -69 16 -16 -3
-24 2 -27 15 -7 24 -87 24 -142 -1z m89 -42 c-16 -17 -41 -39 -55 -50 -25 -17
-30 -18 -63 -4 -20 8 -36 17 -36 20 0 15 110 65 144 65 l40 0 -30 -31z m46 -2
c0 -2 -10 -12 -22 -23 l-23 -19 19 23 c18 21 26 27 26 19z m88 -11 c42 -21
340 -122 405 -136 31 -7 57 -16 57 -20 0 -14 -148 -50 -245 -60 -112 -11 -390
-13 -447 -4 -21 4 -38 11 -38 17 0 5 32 40 72 76 39 36 87 82 107 102 41 41
51 44 89 25z m-291 -85 l33 -13 -35 -41 c-19 -22 -35 -47 -35 -54 0 -8 -13
-13 -36 -13 l-36 0 7 38 c7 37 51 106 63 99 4 -2 22 -9 39 -16z m83 -6 c0 -12
-19 -12 -23 0 -4 9 -1 12 9 8 7 -3 14 -7 14 -8z m635 -161 c-38 -31 -180 -93
-265 -118 -105 -30 -322 -58 -415 -54 -65 3 -70 5 -73 27 -2 13 4 44 13 68 17
43 19 45 49 39 50 -10 424 -7 515 4 46 6 106 19 135 29 65 23 65 23 41 5z
m-788 -28 c1 -1 -4 -20 -12 -41 -8 -22 -14 -52 -15 -67 0 -19 -5 -28 -16 -28
-27 0 -85 32 -100 56 -14 20 -14 26 0 52 9 17 21 33 28 36 11 4 108 -2 115 -8z"/>
</g>
</svg>
