<?xml version="1.0" standalone="no"?>
<!DOCTYPE svg PUBLIC "-//W3C//DTD SVG 20010904//EN"
 "http://www.w3.org/TR/2001/REC-SVG-20010904/DTD/svg10.dtd">
<svg version="1.0" xmlns="http://www.w3.org/2000/svg"
 width="1600.000000pt" height="932.000000pt" viewBox="0 0 1600.000000 932.000000"
 preserveAspectRatio="xMidYMid meet">
<metadata>
Created by potrace 1.16, written by Peter Selinger 2001-2019
</metadata>
<g transform="translate(0.000000,932.000000) scale(0.100000,-0.100000)"
fill="#ffffff" stroke="none">
<path d="M7175 7983 c-137 -71 -261 -203 -342 -365 -13 -26 -28 -50 -33 -53
-5 -3 -14 -31 -20 -63 -6 -31 -16 -74 -21 -96 -16 -60 6 -168 51 -251 53 -99
94 -212 94 -265 1 -58 -48 -133 -101 -155 -52 -22 -270 -21 -301 1 -29 20 -36
15 -111 -86 -123 -163 -137 -214 -135 -510 1 -141 9 -257 29 -420 51 -434 52
-468 18 -593 -14 -48 -25 -65 -66 -99 l-49 -41 -116 -8 c-105 -6 -127 -11
-215 -48 -54 -22 -108 -48 -120 -56 -12 -8 -29 -15 -38 -15 -9 0 -24 -9 -34
-20 -10 -11 -29 -20 -43 -20 -27 0 -146 -114 -162 -155 -5 -14 -15 -23 -22
-20 -22 8 -39 -10 -48 -51 -16 -66 -11 -131 17 -235 21 -78 34 -109 62 -141
68 -78 96 -113 107 -133 6 -11 20 -20 30 -20 28 0 20 44 -22 130 -27 55 -36
88 -41 152 -11 151 25 260 120 356 87 90 156 130 246 142 49 7 51 6 51 -17 0
-37 9 -40 45 -13 17 14 39 25 48 25 8 0 35 -22 59 -49 53 -59 98 -186 98 -275
0 -63 17 -143 34 -165 8 -10 11 -159 12 -490 1 -480 6 -574 29 -601 7 -8 16
-44 20 -80 4 -36 18 -108 31 -160 13 -52 24 -107 24 -121 0 -53 52 -234 74
-259 12 -14 29 -41 38 -60 38 -86 178 -200 244 -200 16 0 63 -5 104 -11 68
-11 82 -10 135 9 33 11 85 21 115 21 104 2 190 21 339 73 81 28 218 13 323
-37 103 -49 260 -192 321 -295 15 -25 36 -56 47 -70 11 -14 40 -77 64 -140 24
-63 49 -116 54 -118 30 -10 -31 204 -78 278 -16 25 -38 61 -49 80 -53 96 -322
330 -379 330 -11 0 -33 7 -48 15 -16 8 -37 15 -46 15 -10 0 -66 19 -125 42
l-108 43 -195 -2 c-107 -1 -233 -2 -279 -3 -74 -1 -89 2 -122 25 -21 14 -47
25 -58 25 -21 0 -51 25 -51 42 0 6 -27 47 -60 90 -33 44 -60 90 -60 101 1 55
96 156 185 198 46 22 61 24 196 23 181 -2 223 -17 267 -89 61 -104 88 -140
106 -143 21 -4 21 -7 -10 83 -18 52 -78 148 -111 178 -11 9 -52 28 -92 42 -59
20 -84 23 -132 18 -33 -3 -62 -9 -64 -14 -3 -4 -29 -5 -58 -2 -39 4 -62 1 -86
-11 -35 -19 -97 -12 -196 20 -27 9 -55 18 -62 20 -16 4 -11 157 6 178 17 21
103 46 156 46 28 0 47 6 58 18 27 30 21 45 -15 40 -36 -6 -98 8 -98 21 0 5
-17 11 -39 15 -28 4 -48 16 -72 44 -72 83 -82 99 -83 143 -12 296 -18 452 -20
544 -7 335 47 725 105 761 6 4 25 36 41 71 33 73 103 155 128 151 10 -2 38 16
63 40 26 23 56 42 68 42 12 0 45 17 73 39 66 50 150 102 203 125 41 18 42 18
76 -3 44 -27 47 -26 47 5 0 40 -17 61 -57 75 -21 6 -44 17 -52 23 -35 27 -153
2 -321 -68 -135 -56 -164 -48 -197 53 -11 35 -24 57 -39 63 -32 15 -37 47 -50
318 -10 217 13 311 123 500 54 93 82 127 117 144 46 21 215 36 346 31 135 -5
183 5 224 49 17 18 43 40 59 49 28 18 37 46 15 49 -7 0 -50 2 -96 2 -87 1
-107 11 -98 49 2 9 -3 21 -12 26 -10 5 -26 26 -37 47 -11 21 -45 57 -76 81
-67 51 -154 177 -174 254 -8 29 -17 94 -20 145 -6 86 -4 99 25 180 17 49 40
104 52 124 44 72 170 193 244 234 16 8 43 27 59 41 25 21 28 27 15 35 -20 13
-17 13 -75 -17z m-1735 -3397 c-12 -38 -30 -48 -30 -18 0 20 29 66 37 58 3 -2
0 -21 -7 -40z m1039 -1152 c-16 -19 -29 -8 -29 23 0 25 0 26 20 8 15 -14 17
-21 9 -31z m131 -378 c0 -3 -4 -8 -10 -11 -5 -3 -10 -1 -10 4 0 6 5 11 10 11
6 0 10 -2 10 -4z m48 -365 c3 -8 -1 -12 -9 -9 -7 2 -15 10 -17 17 -3 8 1 12 9
9 7 -2 15 -10 17 -17z"/>
<path d="M3809 7763 c-13 -16 -37 -68 -53 -116 -20 -62 -35 -93 -52 -104 -16
-10 -31 -37 -44 -82 -29 -94 -70 -193 -87 -213 -8 -9 -16 -31 -17 -50 -8 -89
-144 -281 -288 -404 -171 -147 -227 -173 -424 -198 -87 -12 -122 -21 -131 -33
-7 -9 -13 -44 -13 -77 0 -51 7 -74 45 -150 24 -50 47 -107 50 -126 3 -19 11
-40 17 -48 8 -9 8 -16 0 -24 -7 -7 -12 -47 -12 -100 0 -48 -4 -88 -8 -88 -5 0
-56 47 -115 105 -122 121 -183 156 -313 179 -78 13 -174 13 -196 0 -6 -4 -29
-8 -52 -10 -94 -6 -333 -100 -388 -152 -33 -30 -35 -22 -9 33 11 22 27 60 36
85 10 25 23 59 30 75 7 17 27 64 45 105 17 41 40 92 51 112 47 89 74 219 55
269 -19 51 -38 89 -46 89 -4 0 -15 -28 -24 -62 -49 -172 -185 -522 -216 -552
-28 -29 -26 -7 10 74 33 75 37 94 18 88 -7 -3 -38 -66 -70 -142 -62 -152 -84
-188 -158 -261 -27 -27 -50 -54 -50 -60 0 -5 -9 -21 -20 -35 -15 -20 -21 -23
-31 -12 -7 6 -20 12 -30 12 -9 0 -36 11 -61 24 -33 17 -49 21 -56 14 -8 -8
-32 -1 -84 24 -91 44 -115 51 -122 39 -4 -5 21 -22 54 -37 33 -15 60 -31 60
-37 0 -5 17 -26 38 -46 20 -20 46 -55 56 -79 11 -23 25 -47 33 -53 7 -7 11
-19 8 -29 -3 -9 3 -37 14 -61 40 -89 46 -333 10 -373 -5 -6 -9 -16 -9 -23 0
-21 -77 -173 -94 -186 -8 -7 -22 -30 -29 -52 -9 -25 -24 -45 -40 -53 -24 -11
-27 -19 -27 -60 0 -48 -19 -95 -68 -169 -15 -23 -45 -70 -66 -105 -22 -34 -61
-96 -88 -136 -43 -67 -51 -92 -29 -92 4 0 26 17 48 38 124 115 228 171 269
144 6 -4 21 -25 32 -48 11 -22 38 -56 60 -76 37 -34 46 -37 126 -43 47 -4 93
-4 102 -1 14 6 88 -3 161 -19 12 -3 40 -31 62 -62 38 -54 41 -63 41 -124 0
-48 -4 -68 -14 -72 -8 -3 -26 -43 -41 -89 -46 -139 -71 -184 -141 -260 -36
-40 -84 -92 -105 -115 -39 -42 -48 -63 -28 -63 21 0 51 22 117 85 43 42 73 63
83 60 9 -3 22 1 29 10 7 8 20 15 29 15 10 0 32 16 51 35 41 42 54 44 47 8 -3
-15 1 -51 9 -82 14 -52 13 -166 -1 -203 -4 -9 0 -18 10 -22 13 -4 14 -10 5
-26 -6 -12 -11 -56 -10 -98 2 -141 0 -167 -17 -212 -18 -50 -106 -142 -157
-164 -127 -57 -151 -66 -167 -66 -10 0 -30 -5 -44 -12 -19 -8 -31 -8 -50 0
-24 11 -46 0 -25 -13 17 -10 0 -26 -20 -20 -13 4 -22 -1 -29 -14 -10 -18 -14
-19 -68 -5 -70 16 -110 18 -118 4 -8 -13 54 -39 127 -53 77 -14 154 1 305 59
65 25 134 50 153 56 19 5 44 18 56 29 26 24 30 24 38 -3 5 -20 7 -21 19 -8 8
8 24 41 37 73 12 31 26 57 31 57 5 0 9 7 9 16 0 8 11 32 25 52 14 20 30 53 35
72 13 45 37 77 49 64 5 -5 23 -54 41 -109 18 -55 44 -117 57 -139 48 -75 81
-209 92 -371 6 -90 23 -121 29 -55 2 19 13 44 24 54 22 20 22 47 2 204 -6 44
-4 52 10 52 24 0 20 15 -9 34 -14 9 -25 23 -25 31 0 24 -60 207 -81 245 -33
62 -69 159 -69 184 0 14 -7 29 -15 34 -9 4 -22 32 -30 61 -7 28 -23 71 -35 93
-18 35 -21 52 -15 95 7 59 18 66 39 25 8 -15 71 -85 141 -156 70 -71 151 -161
180 -200 64 -87 102 -123 138 -131 31 -8 38 10 7 20 -19 6 -110 103 -110 117
0 5 18 8 39 8 22 0 43 5 46 10 4 6 -5 10 -19 10 -14 0 -43 7 -65 16 -39 15
-54 33 -104 124 -11 19 -35 59 -54 89 -68 106 -155 288 -172 356 -21 88 -23
141 -7 154 12 10 16 32 16 80 0 54 4 72 20 89 12 12 25 22 30 22 6 0 10 8 10
18 0 24 56 56 105 59 63 5 65 5 173 -8 92 -11 108 -10 138 5 19 9 43 16 52 16
16 0 93 49 81 51 -2 0 -13 2 -24 3 -103 14 -132 20 -147 33 -14 12 -23 13 -45
5 -34 -13 -96 -25 -143 -27 -35 -2 -88 13 -143 41 -16 8 -36 14 -46 14 -28 0
-61 30 -61 55 0 13 -6 28 -12 32 -42 26 -90 231 -60 255 11 10 11 13 -3 20
-12 8 -15 24 -13 83 3 80 -7 104 -39 90 -10 -5 -22 -7 -27 -6 -4 1 -15 -4 -23
-11 -12 -9 -14 -25 -9 -69 7 -56 -7 -141 -26 -166 -6 -7 -12 -27 -14 -45 -10
-93 -18 -125 -35 -147 -11 -13 -19 -30 -19 -37 0 -8 -7 -14 -15 -14 -8 0 -15
5 -15 11 0 5 -4 7 -10 4 -5 -3 -10 -14 -10 -24 0 -10 -11 -28 -25 -41 -24 -22
-26 -23 -38 -6 -12 16 -14 16 -31 -3 -28 -31 -126 -28 -126 4 0 13 -67 75 -81
75 -13 0 -29 62 -29 116 0 29 -5 64 -11 78 -24 52 20 368 71 511 20 54 46 145
70 245 16 62 77 194 104 222 23 24 191 130 271 171 59 30 190 67 238 67 78 0
157 -27 171 -58 6 -15 24 -46 39 -69 46 -72 60 -118 52 -171 -14 -93 -11 -154
8 -166 20 -13 37 4 37 38 0 11 7 27 15 36 9 9 23 61 32 115 15 92 15 102 0
146 -10 26 -14 54 -11 64 4 9 -2 25 -13 38 -19 20 -43 60 -43 70 0 16 68 29
127 24 63 -6 68 -9 127 -64 34 -32 87 -79 117 -105 l56 -46 15 -107 c13 -100
13 -113 -3 -184 -24 -103 -49 -281 -51 -363 -1 -37 -5 -65 -9 -62 -9 5 -45
116 -55 169 -13 71 -46 104 -73 71 -8 -10 -9 -21 -1 -42 6 -16 13 -89 15 -164
5 -137 10 -196 39 -396 20 -135 35 -376 25 -387 -4 -5 -5 -35 -2 -66 4 -45 1
-66 -16 -98 -52 -104 -106 -107 -294 -15 -116 57 -177 75 -177 53 0 -14 41
-61 53 -61 7 0 36 -16 64 -35 29 -19 55 -35 59 -35 3 0 23 -13 43 -30 20 -16
57 -47 82 -67 38 -32 113 -130 128 -168 2 -5 10 -17 17 -25 16 -19 45 -126 44
-166 0 -16 0 -36 1 -44 1 -23 -20 -209 -30 -266 -5 -28 -8 -157 -6 -285 4
-311 17 -381 91 -504 55 -91 97 -139 182 -209 120 -98 237 -126 383 -94 30 6
74 13 99 14 25 1 50 2 56 3 21 2 168 117 216 168 25 28 68 68 95 89 64 52 136
128 123 132 -5 2 -34 -16 -62 -40 -110 -92 -180 -140 -190 -130 -7 7 -28 -9
-65 -49 -59 -63 -94 -79 -174 -79 -25 0 -51 6 -58 12 -11 10 -14 10 -18 1 -3
-8 -21 -13 -43 -13 -40 0 -142 51 -189 93 -45 42 -120 149 -136 195 -9 26 -28
71 -41 101 -31 66 -54 219 -36 230 9 6 9 14 -2 37 -10 21 -14 56 -11 124 1 52
8 280 14 505 5 226 15 444 22 485 13 85 51 198 84 250 25 38 91 102 143 139
37 25 159 70 207 77 81 10 144 23 163 33 29 15 93 13 116 -4 35 -26 106 -12
106 20 0 11 -8 13 -31 8 -26 -5 -36 0 -68 31 -29 28 -50 38 -95 47 -89 16
-201 1 -306 -41 -30 -12 -93 -26 -140 -31 -47 -4 -112 -13 -146 -20 -91 -18
-97 -14 -88 73 3 40 10 93 15 118 5 25 14 70 19 100 19 101 66 240 82 240 4 0
9 -10 11 -22 3 -16 5 -13 6 10 0 19 9 46 19 60 10 15 22 35 25 45 4 9 11 17
16 17 15 0 23 -18 11 -25 -5 -3 -10 -11 -10 -17 0 -6 10 -1 23 11 29 30 94 71
111 71 7 0 25 10 40 21 24 19 31 20 51 9 20 -11 27 -11 41 0 15 14 137 21 152
10 23 -16 52 -66 52 -90 0 -30 -34 -116 -100 -254 -30 -63 -60 -107 -101 -150
-63 -64 -72 -81 -38 -71 14 5 25 1 34 -12 12 -15 17 -16 32 -5 10 7 33 22 50
33 18 12 38 32 45 47 19 37 58 63 107 69 41 6 43 5 104 -60 69 -72 103 -87
138 -59 l22 19 -46 49 c-56 58 -117 170 -117 212 0 32 35 102 51 102 13 0 11
34 -3 48 -9 9 -9 15 0 24 7 7 12 22 12 34 0 12 27 76 60 141 53 104 150 357
150 391 0 38 -69 -18 -128 -104 -12 -19 -28 -34 -34 -34 -5 0 -26 -14 -45 -30
-19 -17 -48 -33 -64 -37 -16 -3 -34 -12 -40 -19 -14 -17 -41 -18 -57 -2 -8 8
-15 8 -26 -2 -32 -25 -251 -4 -289 28 -15 13 -21 13 -43 1 -46 -24 -84 -12
-140 43 -72 70 -87 122 -88 298 -1 151 15 219 81 355 54 111 97 147 248 204
111 43 225 61 390 61 154 0 203 -9 253 -47 98 -74 121 -167 77 -310 -14 -49
-35 -105 -46 -126 -10 -22 -19 -54 -19 -73 0 -25 -6 -38 -25 -50 -14 -9 -25
-22 -25 -28 0 -7 -11 -27 -25 -46 -26 -35 -32 -60 -16 -60 14 0 153 95 175
119 17 19 20 19 31 4 10 -14 23 0 89 99 67 101 79 125 93 193 13 64 13 90 4
149 -24 147 -101 249 -240 315 -57 27 -72 29 -179 31 -183 2 -223 0 -282 -15
-30 -8 -56 -12 -59 -10 -2 3 5 15 16 28 18 21 106 172 151 262 59 118 152 451
152 545 0 29 8 74 17 101 23 63 8 84 -28 42z m-72 -375 c-3 -7 -5 -2 -5 12 0
14 2 19 5 13 2 -7 2 -19 0 -25z m-1826 -651 c-13 -13 -26 -3 -16 12 3 6 11 8
17 5 6 -4 6 -10 -1 -17z m1649 3 c0 -5 -4 -10 -10 -10 -5 0 -10 5 -10 10 0 6
5 10 10 10 6 0 10 -4 10 -10z m-30 -1710 c0 -5 -5 -10 -11 -10 -5 0 -7 5 -4
10 3 6 8 10 11 10 2 0 4 -4 4 -10z m-842 -886 c-24 -24 -44 -7 -22 17 12 13
21 16 28 9 7 -7 5 -15 -6 -26z m172 -1229 c0 -8 -4 -15 -10 -15 -5 0 -10 7
-10 15 0 8 5 15 10 15 6 0 10 -7 10 -15z m35 -135 c3 -5 1 -10 -4 -10 -6 0
-11 5 -11 10 0 6 2 10 4 10 3 0 8 -4 11 -10z m-115 -100 c0 -9 5 -21 12 -28 7
-7 8 -12 2 -12 -13 0 -44 54 -44 77 1 17 1 17 15 -1 8 -11 15 -27 15 -36z
m615 -320 c-3 -5 -13 -10 -21 -10 -8 0 -14 5 -14 10 0 6 9 10 21 10 11 0 17
-4 14 -10z"/>
<path d="M9295 7721 c-60 -15 -131 -60 -171 -107 -52 -63 -48 -56 -89 -171
-47 -131 -134 -274 -198 -324 -27 -22 -55 -39 -62 -39 -7 0 -18 -6 -24 -14 -7
-8 -45 -26 -85 -41 -80 -29 -163 -32 -176 -5 -45 89 -43 84 -27 117 26 50 46
111 77 236 17 65 36 130 44 145 15 30 30 175 17 168 -5 -3 -14 -27 -21 -53
-22 -86 -53 -165 -70 -182 -10 -9 -48 -81 -85 -161 -48 -102 -77 -152 -99
-170 -17 -14 -61 -52 -97 -85 -36 -33 -89 -78 -118 -100 -28 -22 -64 -50 -80
-62 -16 -13 -36 -23 -46 -23 -9 0 -30 -13 -47 -30 -16 -16 -38 -30 -47 -30
-12 0 -37 -30 -72 -87 -63 -104 -137 -187 -153 -174 -6 5 -33 16 -61 24 -39
11 -51 19 -53 36 -3 17 -8 21 -20 15 -9 -4 -37 -10 -62 -14 -50 -9 -161 -53
-200 -80 -14 -9 -37 -20 -51 -23 -37 -9 -172 -146 -199 -202 -21 -42 -22 -56
-17 -144 3 -53 15 -125 26 -161 12 -36 21 -85 21 -109 0 -53 -35 -119 -81
-152 -27 -19 -34 -20 -55 -8 -17 9 -27 10 -35 2 -20 -20 -5 -46 29 -55 29 -8
41 -5 81 22 88 56 129 174 98 281 -38 131 -30 214 31 309 29 46 54 59 170 89
50 14 127 -18 181 -75 l44 -46 -6 -126 c-3 -84 -16 -177 -36 -272 -38 -185
-57 -297 -70 -435 -22 -219 -49 -722 -45 -840 1 -38 2 -133 2 -210 -1 -325 2
-463 11 -520 5 -33 15 -96 21 -140 27 -193 84 -366 182 -560 129 -256 246
-395 383 -457 80 -35 274 -98 305 -98 14 0 48 7 75 16 28 8 64 12 83 9 26 -5
40 0 70 23 43 34 95 62 115 62 8 0 21 7 28 16 8 9 34 26 59 37 38 17 63 20
163 19 123 -2 184 8 227 38 14 9 36 20 50 23 36 9 161 139 223 232 50 74 147
268 147 292 0 6 6 15 13 21 10 9 13 -47 12 -301 0 -172 -4 -318 -8 -325 -5 -7
-8 -70 -8 -139 1 -122 2 -128 25 -148 14 -11 27 -36 31 -55 12 -67 57 -160 83
-173 20 -10 32 -36 65 -132 l40 -120 -12 -85 c-7 -47 -14 -120 -16 -162 -2
-42 -11 -93 -20 -114 -20 -49 -18 -64 5 -36 27 32 62 144 62 200 0 26 4 53 10
60 7 8 9 48 6 107 -3 52 -1 92 3 89 5 -3 9 -17 9 -32 0 -15 14 -43 30 -62 l30
-35 -16 50 c-9 28 -25 82 -35 120 -10 39 -27 95 -38 125 -27 76 -49 186 -49
242 0 26 -5 62 -11 81 -7 21 -10 75 -7 138 3 57 8 190 12 294 3 105 9 254 13
333 5 125 4 145 -10 158 -23 21 -31 81 -15 118 16 38 79 96 105 96 26 0 45 25
85 110 36 78 43 135 38 304 -2 55 -5 61 -43 97 -76 70 -116 52 -59 -27 28 -39
31 -49 21 -72 -5 -15 -10 -44 -10 -65 1 -40 -35 -153 -56 -176 -11 -11 -18 -9
-44 10 -45 33 -67 117 -87 344 -10 105 -19 213 -20 240 -2 28 -9 88 -17 135
-7 47 -13 112 -11 145 1 34 -3 66 -9 74 -8 9 -12 60 -12 142 l0 128 32 33 c24
25 30 39 26 59 -6 32 25 85 103 177 52 62 63 85 45 96 -4 3 -43 -24 -85 -61
-60 -50 -80 -63 -89 -54 -15 15 -14 356 2 525 6 65 14 204 16 310 3 105 8 205
11 221 14 69 99 171 173 209 19 10 69 19 129 23 53 3 111 11 128 18 24 10 43
10 80 2 27 -6 76 -11 109 -11 55 -1 60 1 63 21 4 24 1 25 -90 58 -50 17 -63
35 -27 35 11 0 34 10 51 21 43 31 23 43 -51 29 -76 -14 -147 -11 -183 7 -19 9
-29 10 -34 2 -4 -7 -19 -8 -38 -4 -41 8 -107 6 -120 -4 -6 -4 -37 -7 -68 -5
-31 2 -95 0 -142 -4 -52 -5 -116 -3 -163 3 -43 6 -91 8 -108 4 -83 -20 -94
-19 -97 4 -4 32 -42 34 -78 3 -17 -13 -39 -27 -49 -31 -11 -3 -23 -15 -26 -26
-4 -12 -13 -18 -20 -15 -8 3 -32 10 -55 16 -81 22 -152 115 -166 217 l-6 49
71 69 c82 79 123 145 141 225 6 30 18 71 25 91 11 28 11 44 3 66 -10 25 -7 36
17 79 62 107 131 172 204 191 33 9 46 27 21 29 -8 1 -28 -1 -45 -5z m-1105
-796 c-7 -9 -15 -13 -17 -11 -7 7 7 26 19 26 6 0 6 -6 -2 -15z m640 -191 c58
-50 119 -98 137 -107 43 -23 101 -21 174 3 l61 21 85 -58 c71 -48 92 -69 124
-122 39 -64 39 -66 39 -167 0 -279 -90 -556 -235 -722 -11 -13 -87 -57 -168
-97 -198 -99 -216 -116 -362 -331 -31 -45 -62 -87 -70 -94 -17 -14 -55 -112
-55 -141 0 -44 37 -11 95 86 129 214 213 316 302 364 31 17 60 31 65 31 17 0
160 75 182 95 52 48 105 85 122 85 11 0 32 9 48 19 29 20 30 20 58 0 17 -12
28 -30 28 -43 0 -13 6 -36 14 -52 11 -21 16 -91 21 -259 11 -407 12 -587 5
-621 -8 -35 -93 -144 -205 -264 -39 -42 -86 -98 -105 -125 -57 -86 -90 -115
-90 -81 0 36 -21 22 -50 -33 -18 -33 -39 -62 -47 -65 -27 -11 -68 18 -90 63
-13 25 -27 49 -33 55 -5 5 -10 17 -10 26 0 9 -6 25 -14 36 -14 18 -16 18 -32
2 -16 -16 -18 -38 -16 -220 3 -202 -1 -242 -40 -448 -22 -120 -39 -169 -72
-214 -13 -17 -31 -48 -40 -69 -15 -37 -59 -95 -122 -162 -18 -19 -34 -39 -36
-46 -3 -9 -9 -8 -26 2 -21 13 -24 12 -47 -18 -26 -32 -114 -71 -134 -58 -6 3
-21 -1 -34 -9 -39 -26 -149 -23 -247 6 -61 18 -83 31 -119 68 -24 25 -53 64
-63 87 -10 23 -23 45 -28 48 -6 3 -10 20 -10 36 0 16 -7 41 -16 55 -9 13 -17
44 -18 68 0 23 -7 50 -15 60 -8 9 -17 33 -22 54 -55 250 -71 339 -68 397 1 28
-3 63 -9 78 -7 16 -12 35 -12 43 0 20 18 17 25 -5 13 -41 183 -149 236 -151 8
0 26 -11 39 -25 30 -32 42 -32 34 2 -6 24 -5 26 17 19 13 -4 40 -12 59 -18 51
-15 130 -22 130 -10 0 5 -14 13 -31 18 -17 5 -30 13 -28 19 2 5 33 20 69 32
72 25 113 52 118 76 3 13 -10 11 -70 -12 -40 -16 -100 -31 -133 -35 -57 -6
-64 -5 -144 36 -152 77 -291 234 -291 329 0 21 -9 40 -28 57 -48 46 -70 136
-81 327 -23 397 21 866 114 1210 13 50 27 117 31 150 8 72 54 171 127 275 47
66 62 80 152 133 55 32 103 64 107 70 12 19 -11 20 -38 2 -14 -9 -50 -25 -80
-35 -76 -27 -71 -8 21 78 73 68 129 103 189 118 23 5 28 4 24 -7 -4 -8 -10
-23 -14 -34 -4 -11 17 5 47 36 l55 57 74 4 c60 4 80 1 100 -12 16 -11 37 -16
56 -13 63 10 111 -62 149 -220 9 -37 23 -86 31 -109 8 -24 12 -55 8 -75 -5
-25 -3 -33 9 -33 24 0 29 29 21 150 -5 82 -12 125 -25 150 -11 19 -19 39 -19
44 0 4 -16 34 -35 66 -34 56 -35 58 -21 108 7 28 21 63 31 78 l18 28 21 -25
c12 -13 68 -65 126 -115z m410 6 c0 -5 -4 -10 -10 -10 -5 0 -10 5 -10 10 0 6
5 10 10 10 6 0 10 -4 10 -10z m256 -2246 c-3 -9 -6 -28 -6 -42 0 -21 -9 -32
-41 -50 -22 -13 -43 -21 -46 -18 -7 6 79 125 91 125 4 1 5 -6 2 -15z m4 -196
c0 -40 7 -111 15 -158 8 -47 15 -119 15 -160 0 -41 5 -106 11 -145 14 -95 13
-182 -4 -208 -7 -12 -18 -40 -25 -62 -16 -55 -88 -213 -139 -306 -51 -91 -116
-167 -150 -175 -13 -4 -28 -17 -33 -30 -13 -34 -94 -71 -150 -69 -56 3 -136
41 -163 77 -41 55 -28 196 33 363 49 134 249 564 290 625 9 14 41 63 70 110
65 102 100 143 160 181 66 42 70 40 70 -43z m-150 -1176 c0 -13 -41 -54 -48
-48 -3 4 5 17 18 31 25 27 30 30 30 17z m-910 -132 c0 -5 -5 -10 -11 -10 -5 0
-7 5 -4 10 3 6 8 10 11 10 2 0 4 -4 4 -10z m455 -10 c3 -5 1 -10 -4 -10 -6 0
-11 5 -11 10 0 6 2 10 4 10 3 0 8 -4 11 -10z m-879 -277 c-4 -4 -14 1 -22 11
-22 31 -17 43 8 19 12 -13 18 -26 14 -30z m279 -53 c3 -5 1 -10 -4 -10 -6 0
-11 5 -11 10 0 6 2 10 4 10 3 0 8 -4 11 -10z m1325 -120 c0 -11 -4 -20 -10
-20 -5 0 -10 9 -10 20 0 11 5 20 10 20 6 0 10 -9 10 -20z m22 -75 c3 -14 2
-25 -2 -25 -9 0 -20 25 -20 46 0 23 17 7 22 -21z m-13 -131 c24 -64 25 -68 10
-58 -11 6 -49 88 -49 105 0 26 20 2 39 -47z"/>
<path d="M8990 7445 c-7 -9 -10 -18 -7 -21 10 -11 37 5 37 21 0 19 -14 19 -30
0z"/>
<path d="M4993 7206 c-129 -9 -165 -14 -175 -27 -7 -9 -39 -26 -71 -38 -32
-12 -73 -29 -90 -38 -18 -9 -50 -17 -72 -18 -22 -2 -87 -8 -144 -15 -79 -9
-110 -9 -129 0 -21 9 -27 8 -34 -4 -5 -9 -23 -16 -41 -16 -35 0 -66 -15 -55
-26 12 -12 270 -16 348 -5 86 11 182 37 290 78 65 24 89 28 182 28 94 0 110
-3 136 -22 17 -12 41 -25 55 -28 13 -4 54 -37 91 -74 71 -74 81 -103 52 -160
-13 -25 -22 -28 -98 -39 -46 -6 -128 -18 -183 -27 -55 -9 -154 -18 -219 -20
-151 -5 -194 -12 -283 -41 -56 -19 -77 -22 -98 -14 -14 5 -39 10 -55 10 -65 0
-110 44 -118 117 -4 38 -8 44 -26 41 -17 -2 -22 -11 -24 -43 -6 -71 15 -111
84 -161 83 -59 94 -89 70 -201 -9 -43 -23 -188 -32 -323 -13 -209 -14 -323 -4
-780 13 -650 6 -825 -44 -1011 -35 -130 -136 -280 -201 -298 -34 -9 -118 -74
-225 -175 -30 -28 -68 -57 -83 -64 -35 -15 -97 -145 -120 -253 -9 -41 -24 -99
-33 -129 -20 -70 -24 -245 -6 -323 17 -73 30 -67 21 10 -4 32 -7 90 -7 128 l1
70 8 -62 c8 -65 24 -107 38 -99 5 3 11 35 15 72 4 37 11 76 17 86 7 13 7 23 0
32 -12 14 -8 101 4 101 5 0 11 -9 15 -19 10 -28 18 -8 29 65 9 65 33 118 80
175 14 17 38 54 53 82 24 45 106 121 130 122 4 0 2 -14 -4 -32 -16 -44 -3
-499 16 -601 17 -86 10 -152 -22 -227 -21 -49 -121 -154 -211 -222 -31 -23
-71 -55 -90 -71 -19 -16 -50 -36 -69 -44 -27 -11 -32 -17 -21 -24 23 -15 34
-11 102 39 36 26 85 58 107 72 23 14 58 43 79 64 20 22 52 55 73 73 20 19 42
48 48 64 7 16 16 29 19 29 15 0 32 133 36 285 3 88 5 160 6 160 1 0 3 32 4 70
2 60 20 144 67 320 24 91 50 120 114 130 43 6 49 4 66 -17 9 -12 18 -29 18
-37 0 -7 12 -61 26 -119 29 -123 29 -124 20 -257 -4 -55 -10 -192 -13 -305 -4
-173 -2 -216 12 -270 9 -36 26 -101 37 -145 11 -44 46 -132 78 -195 32 -63 61
-126 65 -140 12 -40 77 -119 164 -202 110 -107 113 -113 101 -237 -16 -148
-52 -238 -91 -226 -15 5 -19 2 -19 -19 0 -28 -25 -46 -64 -46 -30 0 -35 -15
-9 -25 16 -6 15 -8 -7 -26 -14 -11 -46 -30 -71 -44 -47 -24 -76 -51 -66 -61 3
-3 29 3 58 13 45 15 75 39 182 143 165 160 170 170 175 353 l4 138 -37 74
c-20 41 -33 79 -30 85 4 6 -1 20 -10 30 -9 10 -17 34 -18 54 -1 25 -7 37 -22
44 -16 7 -25 28 -39 93 -9 46 -22 92 -27 102 -12 23 -4 36 19 30 10 -2 51 9
93 26 62 25 91 30 169 32 52 1 107 -1 122 -5 22 -7 32 -3 54 19 15 15 73 67
129 115 110 96 111 97 195 295 25 59 44 121 47 154 6 67 24 123 65 211 17 36
37 83 45 105 18 50 57 117 88 151 25 27 32 44 17 44 -11 0 -94 -88 -119 -125
-11 -16 -27 -54 -37 -83 -9 -29 -31 -76 -50 -105 -39 -63 -68 -135 -97 -242
-12 -44 -27 -91 -34 -105 -25 -48 -178 -188 -220 -202 -37 -13 -43 -12 -80 9
-58 32 -84 43 -106 43 -24 0 -133 55 -150 76 -32 38 -105 57 -115 29 -5 -12
-13 -11 -47 8 -22 13 -49 34 -59 47 -22 31 -36 136 -48 368 -5 95 -13 188 -19
205 -5 18 -12 81 -15 140 -3 60 -10 156 -15 215 -6 59 -13 199 -16 312 -4 113
-9 209 -12 213 -4 7 -4 389 1 532 3 89 25 173 60 233 17 28 34 52 38 52 4 0
26 17 50 38 26 22 69 45 105 57 40 13 64 26 67 37 2 11 14 18 28 18 13 0 29 5
34 10 6 6 89 13 185 16 l174 7 42 -44 c108 -113 140 -204 122 -349 -11 -83
-54 -236 -69 -245 -14 -9 -50 -85 -50 -106 0 -10 5 -21 10 -24 18 -11 64 49
113 149 32 65 53 96 65 96 9 1 31 20 49 44 29 40 37 44 80 48 56 4 74 -9 104
-78 22 -53 43 -54 47 -1 4 41 -29 114 -56 124 -62 24 -168 133 -202 208 -20
45 -22 59 -16 161 3 62 13 128 21 148 8 19 15 46 15 59 0 13 18 58 40 101 22
42 43 95 46 117 6 37 5 41 -12 38 -13 -3 -38 -43 -79 -124 -58 -115 -62 -121
-124 -162 -89 -59 -161 -85 -251 -89 -245 -11 -469 -12 -505 -3 -79 22 -135
53 -140 79 -3 14 -12 38 -20 53 -8 16 -15 38 -15 49 0 11 -9 56 -21 101 -40
157 -11 303 85 429 54 70 101 93 236 112 143 21 251 42 310 61 25 8 106 24
180 35 74 12 162 28 196 36 80 19 94 18 94 -5 0 -10 7 -21 15 -25 8 -3 15 -16
15 -30 0 -14 5 -28 11 -32 10 -6 7 41 -6 96 -2 8 10 25 26 38 29 23 30 23 75
6 54 -21 67 -12 62 42 l-3 39 -65 2 c-36 1 -70 -3 -77 -9 -9 -7 -18 -1 -33 24
-11 18 -20 38 -20 45 0 6 -14 42 -30 79 -41 89 -114 165 -178 183 -26 8 -65
20 -87 26 -62 20 -156 23 -332 11z m544 -1948 c-3 -8 -6 -5 -6 6 -1 11 2 17 5
13 3 -3 4 -12 1 -19z m-1134 -1272 c6 -16 -2 -28 -14 -20 -12 7 -11 34 0 34 5
0 11 -6 14 -14z m-288 -304 c-9 -29 -21 -52 -26 -52 -6 0 -9 6 -6 13 30 75 40
97 43 94 2 -2 -3 -27 -11 -55z m-255 35 c0 -7 -6 -21 -13 -32 -19 -26 -30 -3
-11 23 17 25 24 28 24 9z m-86 -134 c-4 -10 -7 -30 -7 -45 0 -17 -5 -28 -13
-28 -8 0 -14 9 -14 20 0 25 21 70 33 70 5 0 6 -8 1 -17z m1507 -647 c-12 -15
-60 -30 -68 -22 -6 6 48 35 66 36 10 0 11 -3 2 -14z m-61 -84 c0 -16 -22 -30
-41 -25 -20 5 -24 15 -12 26 9 10 53 9 53 -1z m-372 -34 c-3 -7 -14 -14 -26
-16 -16 -3 -20 1 -16 12 7 19 48 22 42 4z m-208 -288 c0 -5 -2 -10 -4 -10 -3
0 -8 5 -11 10 -3 6 -1 10 4 10 6 0 11 -4 11 -10z m59 -82 c20 -23 21 -28 8
-28 -9 0 -23 13 -32 30 -16 31 -20 50 -7 35 4 -6 18 -22 31 -37z m225 -494
c-7 -46 -44 -104 -43 -69 0 11 6 31 14 45 8 14 14 38 15 55 0 20 3 26 10 19 6
-6 8 -27 4 -50z"/>
<path d="M12892 7063 c-26 -50 -20 -294 10 -408 16 -58 106 -184 232 -325 33
-37 196 -154 257 -185 82 -42 189 -158 227 -245 21 -49 34 -190 20 -207 -8
-10 -8 -17 -1 -24 7 -7 5 -26 -8 -61 -20 -56 -146 -269 -195 -332 -72 -91 -87
-107 -96 -104 -6 2 -29 51 -53 108 -53 131 -101 246 -119 285 -8 17 -22 57
-31 90 -9 33 -39 134 -65 225 -57 196 -75 273 -67 292 3 8 0 41 -7 74 -9 47
-16 59 -31 59 -14 0 -21 -10 -26 -33 -19 -95 -58 -50 -112 127 -35 115 -57
161 -79 161 -23 0 -4 -282 40 -605 18 -128 25 -308 24 -582 -1 -88 -2 -93 -37
-141 -30 -43 -40 -50 -68 -49 -17 0 -58 -12 -90 -28 -32 -15 -61 -25 -64 -21
-4 3 -6 30 -4 59 2 63 -23 271 -39 311 -6 16 -28 112 -50 214 -30 137 -46 191
-60 204 -11 10 -20 26 -20 36 0 9 -11 27 -24 39 -13 12 -33 49 -45 83 -13 34
-28 60 -36 60 -8 0 -28 17 -45 39 -41 51 -110 99 -163 115 -31 9 -43 18 -45
34 -2 12 24 77 57 144 84 173 100 272 57 363 -29 62 -104 147 -150 169 -43 20
-128 23 -236 6 -47 -7 -115 -14 -151 -15 -69 -2 -111 -21 -130 -57 -15 -28 -3
-34 30 -15 24 14 57 17 190 17 140 0 167 -3 200 -19 50 -26 98 -82 106 -124
11 -59 -43 -208 -100 -275 -46 -54 -167 -132 -206 -132 -15 0 -43 -7 -62 -15
-20 -8 -48 -15 -63 -15 -14 0 -37 -9 -51 -20 -14 -11 -34 -20 -43 -20 -21 0
-94 -56 -180 -137 -32 -30 -86 -72 -119 -94 -57 -37 -91 -79 -91 -113 0 -9 16
2 39 27 22 23 43 39 47 35 4 -4 -5 -36 -19 -70 -32 -75 -69 -192 -86 -268 -7
-30 -19 -77 -26 -105 -33 -119 -45 -190 -60 -345 -22 -234 -22 -231 -40 -375
-9 -71 -18 -188 -20 -260 -7 -173 -7 -644 -1 -654 3 -4 7 -79 10 -167 2 -87 9
-179 14 -204 6 -25 16 -96 22 -158 23 -224 106 -458 224 -632 51 -75 155 -190
173 -190 6 0 19 -7 28 -16 10 -10 39 -18 73 -21 31 -2 62 -6 69 -8 6 -2 62 3
124 12 116 16 118 17 202 84 18 14 59 44 92 68 61 43 102 90 193 221 29 41 65
82 79 91 33 18 60 62 148 234 97 190 161 273 254 335 104 69 135 96 126 109
-3 7 -15 9 -26 6 -10 -4 -34 -7 -51 -7 -42 -1 -129 -34 -145 -55 -22 -29 -27
-5 -14 65 7 37 19 105 27 152 7 47 21 128 30 180 13 77 14 128 8 270 -11 278
-8 380 15 434 11 25 23 46 25 46 16 0 106 -64 106 -75 0 -8 23 -33 51 -57 54
-45 101 -122 106 -173 5 -55 32 -226 38 -234 2 -5 7 -246 10 -535 5 -404 10
-546 21 -609 8 -45 17 -98 21 -117 15 -96 79 -254 119 -291 20 -19 27 -21 49
-11 31 14 32 30 2 41 -32 12 -42 27 -66 98 -27 82 -26 134 4 228 34 104 43
118 124 205 l69 75 17 -39 c31 -73 18 -301 -30 -543 -17 -82 -19 -127 -6 -119
4 3 11 22 14 43 3 21 13 76 22 123 35 184 55 317 55 362 0 37 -14 163 -23 211
-1 5 7 14 18 20 11 7 49 37 84 67 35 30 79 64 97 75 18 11 60 44 94 73 34 29
65 50 69 47 5 -2 14 -33 21 -67 43 -205 305 -634 508 -831 l49 -48 17 26 c12
18 23 24 35 20 45 -14 53 40 37 245 -7 91 -13 185 -13 210 -3 376 -2 660 1
671 9 25 40 550 39 664 0 61 -4 242 -8 403 -8 329 -1 408 46 502 39 79 81 114
171 144 179 60 256 22 348 -169 28 -60 41 -185 26 -247 -17 -63 -78 -152 -130
-188 -89 -61 -99 -99 -24 -96 31 1 63 13 114 43 139 83 185 162 218 378 7 50
-15 216 -36 264 -11 25 -31 61 -45 79 -24 32 -93 82 -113 82 -6 0 -52 20 -103
45 -132 63 -238 82 -325 56 -33 -10 -78 1 -93 22 -15 21 0 175 20 220 12 25
21 56 21 69 0 13 7 32 15 42 18 23 20 76 4 76 -25 0 -98 -70 -101 -97 -2 -22
-12 -31 -48 -45 -25 -9 -64 -17 -87 -17 -35 -1 -46 4 -59 24 -10 16 -23 24
-33 20 -10 -3 -20 3 -26 17 -16 36 -179 141 -255 164 -57 17 -60 17 -60 -1 0
-9 34 -32 82 -56 111 -56 156 -93 151 -123 -4 -19 2 -27 35 -42 22 -11 47 -31
56 -45 68 -114 91 -409 82 -1072 l-6 -458 -35 -36 c-24 -25 -36 -32 -39 -22
-31 91 -36 120 -36 192 0 87 11 196 34 341 15 96 13 119 -12 114 -12 -2 -23
-39 -44 -143 -23 -114 -28 -171 -30 -305 -3 -165 1 -193 42 -295 4 -11 13 -40
20 -65 7 -25 21 -72 32 -105 11 -33 25 -85 30 -115 16 -87 21 -400 7 -467 -6
-32 -11 -67 -11 -78 0 -30 -20 -129 -28 -138 -4 -4 -32 25 -63 65 -54 72 -102
163 -137 263 -104 298 -134 373 -233 575 -55 111 -79 150 -157 252 -11 14 -20
32 -20 38 0 7 -15 58 -34 113 -41 121 -56 210 -52 292 4 60 21 141 35 160 4 6
13 30 20 55 7 25 26 66 42 93 16 26 29 49 29 52 0 3 17 28 39 56 50 67 111
241 93 270 -7 10 -12 42 -12 71 0 66 -30 151 -80 226 -57 85 -168 182 -207
182 -11 0 -42 21 -68 46 -27 25 -70 56 -96 69 -26 13 -62 43 -80 66 -19 24
-43 52 -54 64 -37 39 -77 87 -100 120 -12 19 -29 40 -37 48 -8 9 -24 71 -37
146 -20 115 -22 140 -12 212 6 45 11 88 11 96 0 19 -28 16 -38 -4z m-1622
-1007 c0 -2 -8 -21 -17 -42 -14 -33 -18 -36 -21 -17 -4 24 13 63 28 63 6 0 10
-2 10 -4z m419 -35 c12 -21 110 -85 118 -77 3 3 -9 13 -27 23 -45 25 -80 53
-80 64 0 15 67 10 80 -6 9 -11 23 -14 44 -10 23 5 37 1 54 -15 12 -11 22 -27
22 -34 0 -8 7 -19 15 -26 25 -21 17 -32 -17 -25 -50 11 -22 -10 42 -30 68 -22
121 -55 148 -92 l20 -28 -26 -32 c-15 -19 -54 -64 -87 -101 -33 -38 -96 -112
-140 -167 -196 -241 -289 -326 -393 -360 -99 -33 -203 -87 -200 -104 3 -14 21
-16 121 -14 98 3 119 0 124 -12 3 -9 -2 -24 -11 -33 -9 -9 -40 -57 -68 -107
-53 -96 -123 -195 -137 -195 -5 0 -21 -19 -36 -42 -72 -111 -230 -310 -255
-323 -39 -20 -40 -20 -40 18 0 18 -5 38 -11 44 -8 8 -8 21 0 46 7 20 14 73 16
119 3 88 18 189 33 229 5 13 13 52 17 87 5 42 11 62 21 62 25 0 34 38 34 145
0 58 4 125 9 148 5 23 14 67 19 97 47 257 57 307 69 321 7 8 13 20 13 26 0 6
16 31 36 55 20 23 42 54 48 68 12 28 125 170 135 170 4 0 16 8 27 18 49 45 95
73 150 91 77 25 101 25 113 2z m296 -119 c-3 -3 -11 0 -18 7 -9 10 -8 11 6 5
10 -3 15 -9 12 -12z m275 -374 c1 -35 7 -99 15 -143 8 -44 15 -109 15 -144 0
-112 20 -55 27 77 3 67 9 119 13 117 13 -8 29 -154 36 -320 17 -385 3 -828
-23 -801 -6 5 -5 163 0 438 1 54 -2 90 -6 82 -5 -8 -10 -72 -12 -142 -15 -460
-29 -748 -46 -950 -6 -68 -15 -136 -20 -150 -6 -15 -22 -65 -35 -111 -31 -104
-93 -236 -133 -278 -16 -18 -32 -41 -35 -51 -3 -10 -25 -29 -47 -43 -23 -13
-55 -36 -73 -50 -17 -14 -41 -31 -53 -38 -13 -6 -23 -16 -23 -21 0 -20 37 -9
90 25 62 39 82 44 73 18 -23 -65 -92 -116 -214 -159 -60 -21 -92 -26 -167 -25
l-93 0 -92 53 c-125 72 -291 231 -335 320 -16 35 -32 77 -35 93 -3 17 -15 71
-27 120 -32 133 -32 272 2 395 36 131 181 466 271 625 6 11 19 36 28 55 10 19
40 61 66 94 26 32 53 66 58 75 64 106 98 141 135 141 13 0 12 -219 -1 -440
-11 -185 -13 -291 -9 -510 2 -161 15 -145 27 34 6 87 12 121 22 124 11 4 12
-8 7 -62 -6 -53 -5 -66 6 -66 11 0 17 37 26 173 7 94 19 226 27 292 8 66 19
174 25 240 16 185 67 325 233 642 75 145 134 224 175 238 9 3 32 26 51 50 18
25 37 45 42 45 5 0 9 -28 9 -62z m560 -505 c0 -60 3 -125 6 -145 6 -36 5 -39
-29 -53 -51 -21 -81 -19 -128 10 -33 21 -39 30 -33 48 12 43 48 107 71 129 13
12 23 27 23 33 0 16 62 83 78 84 9 1 12 -27 12 -106z m-1262 -15 c-3 -7 -8
-13 -13 -13 -5 0 -10 6 -12 13 -3 6 3 12 12 12 9 0 15 -6 13 -12z m1570 -91
c16 -19 172 -297 187 -334 7 -17 21 -40 30 -50 9 -10 39 -56 66 -103 l50 -85
-33 -27 c-33 -27 -33 -27 -8 -28 25 -1 24 -1 -10 -31 -19 -17 -48 -37 -65 -46
-38 -19 -95 -73 -95 -89 0 -7 -12 -26 -26 -43 -16 -19 -28 -47 -30 -74 -3 -23
-9 -80 -14 -127 -12 -99 -6 -136 46 -337 l37 -142 -52 -57 c-29 -31 -61 -74
-72 -95 -11 -22 -26 -39 -33 -39 -13 0 -56 -94 -56 -120 0 -6 -4 -10 -8 -10
-14 0 -12 58 4 140 8 41 14 91 14 111 0 20 7 56 16 80 11 32 19 131 29 369 21
477 19 618 -15 970 -14 149 0 213 38 167z m-1968 -598 c-7 -11 -14 -18 -17
-15 -3 3 0 12 7 21 18 21 23 19 10 -6z m2435 -161 c-10 -32 -10 -126 0 -233 9
-106 4 -123 -79 -247 -61 -92 -100 -138 -163 -193 l-42 -36 -15 28 c-8 16 -17
47 -21 68 -7 42 -10 51 -44 126 -17 37 -21 68 -23 160 -3 183 18 210 244 320
24 12 75 11 83 -1 10 -16 22 -12 28 10 3 11 13 20 22 20 13 0 16 -5 10 -22z
m-2535 -964 c0 -8 -4 -12 -10 -9 -5 3 -10 13 -10 21 0 8 5 12 10 9 6 -3 10
-13 10 -21z"/>
<path d="M11810 5989 c0 -12 25 -22 41 -17 6 2 0 9 -15 16 -16 7 -26 8 -26 1z"/>
<path d="M10381 6994 c-20 -15 -23 -23 -19 -66 7 -64 37 -98 89 -98 33 0 42 5
64 37 30 46 32 82 4 117 -17 21 -29 26 -68 26 -27 0 -56 -7 -70 -16z"/>
<path d="M7576 6675 c-22 -41 -18 -51 12 -29 12 8 22 26 22 40 0 34 -12 30
-34 -11z"/>
<path d="M10876 6617 c-2 -6 -14 -64 -26 -127 -38 -191 -68 -261 -150 -352
-34 -39 -59 -58 -74 -58 -13 0 -50 -18 -82 -40 -33 -22 -63 -39 -68 -37 -25 8
-43 114 -76 434 -16 155 -22 165 -78 118 -17 -14 -36 -25 -44 -25 -8 0 -32
-18 -53 -40 -36 -37 -40 -47 -46 -108 -3 -37 -1 -143 4 -235 5 -92 7 -170 3
-174 -3 -4 -16 3 -29 14 -34 31 -66 45 -88 38 -14 -5 -25 -1 -35 12 -13 17
-15 17 -25 1 -5 -10 -21 -18 -34 -18 -25 0 -51 -32 -40 -50 3 -6 17 -7 31 -4
14 4 31 1 39 -6 8 -7 15 -9 15 -6 0 9 56 -22 104 -58 63 -48 80 -101 111 -351
9 -71 29 -204 45 -295 15 -91 33 -201 40 -245 6 -44 15 -98 20 -120 11 -45 27
-211 27 -265 0 -38 9 -149 18 -214 3 -23 7 -102 10 -176 3 -74 8 -148 11 -165
3 -16 7 -156 10 -310 6 -353 27 -679 59 -905 14 -96 25 -189 25 -206 0 -23 5
-33 20 -37 11 -3 20 -12 20 -21 0 -9 5 -16 10 -16 6 0 10 30 10 69 0 65 10 95
25 71 19 -30 24 1 21 118 -18 545 -19 557 -34 580 -11 17 -12 28 -5 45 7 14 9
124 7 297 -5 331 6 415 58 482 18 24 34 45 35 47 1 1 6 1 12 0 6 -3 4 -18 -4
-41 -7 -21 -8 -38 -3 -38 5 0 16 17 24 38 26 64 44 103 99 214 30 58 61 130
69 159 18 59 50 277 47 324 0 17 -2 54 -3 84 -2 30 -8 56 -14 58 -14 5 -50
-51 -59 -92 -13 -58 -16 -65 -30 -65 -36 0 -69 137 -62 255 7 100 23 182 42
212 33 50 7 70 -44 33 -38 -27 -72 -129 -84 -255 -4 -38 28 -269 40 -288 3 -5
14 -46 24 -90 l18 -81 -30 -90 c-16 -50 -47 -119 -68 -153 -38 -59 -85 -102
-97 -90 -4 3 -6 140 -5 304 0 330 -8 499 -49 927 -12 120 -4 156 52 246 52 83
96 138 178 223 119 123 151 197 185 419 7 48 11 96 8 107 -6 23 -32 36 -37 18z
m-626 -413 c0 -8 -5 -12 -10 -9 -6 4 -8 11 -5 16 9 14 15 11 15 -7z m237 -876
c-3 -8 -6 -5 -6 6 -1 11 2 17 5 13 3 -3 4 -12 1 -19z m13 -64 c0 -8 -4 -12
-10 -9 -5 3 -10 10 -10 16 0 5 5 9 10 9 6 0 10 -7 10 -16z m10 -100 c0 -8 -4
-12 -10 -9 -5 3 -10 10 -10 16 0 5 5 9 10 9 6 0 10 -7 10 -16z"/>
<path d="M1697 6444 c-4 -4 -7 -14 -7 -23 0 -11 3 -12 11 -4 6 6 10 16 7 23
-2 6 -7 8 -11 4z"/>
<path d="M1477 5520 c-3 -11 -3 -20 -1 -20 2 0 8 9 14 20 6 11 7 20 2 20 -6 0
-12 -9 -15 -20z"/>
<path d="M2335 4300 c3 -5 11 -10 16 -10 6 0 7 5 4 10 -3 6 -11 10 -16 10 -6
0 -7 -4 -4 -10z"/>
<path d="M2470 4230 c0 -5 5 -10 11 -10 5 0 7 5 4 10 -3 6 -8 10 -11 10 -2 0
-4 -4 -4 -10z"/>
<path d="M9811 1774 c0 -11 3 -14 6 -6 3 7 2 16 -1 19 -3 4 -6 -2 -5 -13z"/>
</g>
</svg>
